<svg width="301" height="56" viewBox="0 0 301 56" fill="none" xmlns="http://www.w3.org/2000/svg">
<path d="M157.755 18.4712C154.271 18.4712 150.929 19.8865 148.466 22.4058C146.002 24.9251 144.618 28.342 144.618 31.9048C144.618 35.4676 146.002 38.8845 148.466 41.4038C150.929 43.9231 154.271 45.3384 157.755 45.3384H170.787V31.9848C170.811 30.219 170.492 28.4659 169.848 26.8274C169.204 25.1889 168.247 23.6977 167.035 22.4403C165.822 21.183 164.377 20.1846 162.784 19.5032C161.191 18.8218 159.482 18.471 157.755 18.4712V18.4712ZM157.755 54.7473C153.325 54.7578 148.992 53.4228 145.305 50.9116C141.619 48.4003 138.744 44.8261 137.047 40.642C135.349 36.4579 134.905 31.8526 135.771 27.41C136.636 22.9674 138.772 18.8878 141.908 15.6884C145.044 12.489 149.038 10.3141 153.385 9.43946C157.731 8.5648 162.233 9.02981 166.321 10.7755C170.408 12.5212 173.897 15.469 176.344 19.2449C178.791 23.0209 180.086 27.4549 180.066 31.9848V54.8539L157.755 54.7473ZM22.5852 18.4712C19.1047 18.4712 15.7667 19.8851 13.3056 22.4019C10.8445 24.9187 9.46185 28.3322 9.46185 31.8915C9.46185 35.4508 10.8445 38.8643 13.3056 41.381C15.7667 43.8978 19.1047 45.3118 22.5852 45.3118H35.7477V31.9848C35.7721 30.2077 35.4487 28.4437 34.7965 26.7963C34.1444 25.149 33.1766 23.6517 31.9501 22.3925C30.7237 21.1334 29.2634 20.1378 27.6551 19.4644C26.0468 18.7909 24.323 18.4533 22.5852 18.4712ZM22.5852 54.7473C18.1567 54.7525 13.8263 53.413 10.143 50.8986C6.45979 48.3841 3.58948 44.808 1.89597 40.6235C0.202462 36.4389 -0.237996 31.8344 0.630429 27.3936C1.49886 22.9528 3.63706 18.8756 6.77401 15.6789C9.91095 12.4822 13.9054 10.31 18.251 9.43748C22.5966 8.56499 27.0976 9.03156 31.1836 10.778C35.2696 12.5245 38.7566 15.4723 41.2024 19.2477C43.6483 23.0231 44.943 27.4561 44.9223 31.9848V54.8272L22.5852 54.7473ZM297.355 17.8582L289.275 22.336C287.998 19.6706 286.408 18.3113 284.479 18.3113C284.053 18.297 283.628 18.3698 283.23 18.5254C282.832 18.681 282.468 18.9163 282.16 19.2175C281.844 19.5169 281.594 19.88 281.423 20.2838C281.253 20.6876 281.166 21.1232 281.169 21.5631C281.169 23.2423 283.072 24.8948 286.903 26.5474C290.785 28.0136 294.378 30.1802 297.511 32.9443C298.446 34.0319 299.157 35.2997 299.605 36.673C300.053 38.0462 300.227 39.4972 300.118 40.9405C300.159 42.9495 299.772 44.9436 298.984 46.7846C298.197 48.6255 297.027 50.2693 295.557 51.6021C293.563 53.3693 291.181 54.6184 288.614 55.2431C286.048 55.8678 283.371 55.8497 280.813 55.1903C278.254 54.531 275.889 53.2499 273.918 51.4558C271.947 49.6618 270.429 47.4078 269.492 44.8853L277.911 40.8872C278.617 42.3237 279.492 43.6664 280.517 44.8853C281.68 46.0029 283.222 46.6145 284.818 46.5911C288.154 46.5911 289.822 45.0452 289.822 41.9267C289.822 40.1142 288.545 38.435 285.965 36.8891C284.948 36.3827 283.958 35.8762 282.968 35.4231L279.918 33.9572C277.654 32.921 275.602 31.4559 273.871 29.6392C272.293 27.6182 271.487 25.0795 271.604 22.496C271.563 20.7369 271.883 18.9886 272.543 17.3635C273.203 15.7385 274.188 14.2727 275.435 13.0604C278.013 10.5847 281.439 9.24446 284.974 9.32889C287.644 9.2825 290.263 10.0757 292.477 11.6012C294.692 13.1266 296.394 15.3108 297.355 17.8582V17.8582ZM254.766 26.4141C254.359 24.0518 253.111 21.9273 251.263 20.4506C249.415 18.974 247.097 18.2498 244.757 18.4179C243.603 18.4132 242.457 18.6115 241.369 19.0043C240.329 19.3603 239.358 19.9018 238.502 20.6035C237.619 21.3554 236.87 22.257 236.286 23.2689C235.647 24.2396 235.147 25.2987 234.801 26.4141H254.766ZM264.905 34.6502H234.227C234.332 37.84 235.553 40.8855 237.668 43.2327C238.686 44.283 239.908 45.1051 241.254 45.6465C242.6 46.188 244.042 46.4371 245.487 46.3779C247.654 46.4633 249.791 45.8375 251.586 44.5921C253.746 42.6973 255.578 40.4448 257.007 37.9286L265.348 42.6997C264.187 44.7693 262.815 46.708 261.256 48.4836C259.903 50.0095 258.351 51.337 256.643 52.4284C255.033 53.4608 253.274 54.2255 251.43 54.694C249.398 55.1946 247.316 55.4451 245.226 55.4403C242.333 55.6062 239.438 55.1327 236.739 54.0518C234.041 52.9709 231.602 51.3081 229.588 49.1766C225.56 44.5719 223.471 38.5281 223.776 32.3579C223.551 26.1998 225.629 20.1856 229.588 15.5393C231.474 13.4033 233.804 11.7252 236.406 10.6277C239.008 9.53018 241.816 9.04091 244.627 9.19562C247.408 9.05523 250.185 9.53295 252.768 10.5959C255.351 11.6588 257.677 13.2817 259.588 15.3527C263.468 20.0768 265.419 26.1479 265.035 32.3046L264.905 34.6502ZM190.491 9.16897L201.569 33.7972L212.62 9.16897H223.749L201.491 55.9733L179.388 9.16897H190.491ZM119.31 26.4141C118.898 24.0545 117.648 21.9335 115.801 20.4579C113.954 18.9822 111.64 18.2558 109.301 18.4179C108.147 18.4132 107.001 18.6115 105.913 19.0043C104.875 19.3663 103.905 19.9072 103.046 20.6035C102.175 21.3605 101.435 22.2615 100.856 23.2689C100.21 24.3147 99.7267 25.4566 99.4228 26.654L119.31 26.4141ZM129.475 34.6502H98.7712C98.876 37.84 100.097 40.8855 102.212 43.2327C103.23 44.283 104.452 45.1051 105.798 45.6465C107.144 46.188 108.586 46.4371 110.031 46.3779C112.2 46.4767 114.341 45.8497 116.13 44.5921C118.296 42.7039 120.13 40.4501 121.551 37.9286L129.892 42.6464C128.719 44.7086 127.348 46.6461 125.8 48.4303C124.438 49.9569 122.877 51.2843 121.16 52.3751C119.547 53.4053 117.789 54.1782 115.948 54.6673C113.915 55.1605 111.833 55.4021 109.744 55.387C106.888 55.5097 104.039 55.0126 101.384 53.9284C98.7286 52.8443 96.3282 51.1975 94.3402 49.0966C90.3109 44.4823 88.2225 38.4298 88.5279 32.2513C88.2429 26.1674 90.2166 20.198 94.0535 15.5393C95.9384 13.4084 98.2637 11.7335 100.861 10.6362C103.457 9.53894 106.261 9.04683 109.067 9.19562C111.847 9.05523 114.625 9.53295 117.207 10.5959C119.79 11.6588 122.117 13.2817 124.027 15.3527C127.914 20.0836 129.865 26.1655 129.475 32.3313V34.6502ZM80.7086 0V54.2408H70.8042V0H80.7086ZM61.8902 0V54.2408H51.9858V0H61.8902Z" fill="#C7DD7A"/>
</svg>
